<svg xmlns="http://www.w3.org/2000/svg" width="65.644" height="49" viewBox="0 0 65.644 49">
  <g id="Group_10" data-name="Group 10" transform="translate(-1.1 -4.878)">
    <path id="Path_34" data-name="Path 34" d="M63.257,40.469V21.4a4.169,4.169,0,0,0-2.432-3.813L34.9,5.484a6.41,6.41,0,0,0-5.443,0L3.53,17.582a4.209,4.209,0,0,0,0,7.628l6.1,2.848v9.4a8.683,8.683,0,0,0,4.34,7.507l4.978,2.872a26.567,26.567,0,0,0,26.454,0l4.981-2.872a8.692,8.692,0,0,0,4.337-7.507v-9.4l4.569-2.132V40.469A4.216,4.216,0,0,0,55.8,44.613v5.051a4.219,4.219,0,0,0,4.216,4.214h2.507a4.221,4.221,0,0,0,4.216-4.214V44.613A4.216,4.216,0,0,0,63.257,40.469Zm-12.5-3.007a4.717,4.717,0,0,1-2.353,4.073l-4.981,2.87a22.594,22.594,0,0,1-22.5,0l-4.978-2.87A4.721,4.721,0,0,1,13.6,37.462V29.909l15.858,7.4a6.41,6.41,0,0,0,5.443,0l15.858-7.4v7.553ZM59.153,21.62l-25.927,12.1a2.458,2.458,0,0,1-2.093,0L5.206,21.62a.248.248,0,0,1,0-.447l25.927-12.1a2.487,2.487,0,0,1,2.093,0l25.927,12.1a.219.219,0,0,1,.141.222A.225.225,0,0,1,59.153,21.62Zm3.626,28.044a.247.247,0,0,1-.251.247H60.021a.249.249,0,0,1-.251-.247V44.613a.249.249,0,0,1,.251-.249h2.507a.251.251,0,0,1,.251.249Z" transform="translate(0 0)" fill="#fff"/>
  </g>
</svg>
