<svg xmlns="http://www.w3.org/2000/svg" width="50.023" height="50.171" viewBox="0 0 50.023 50.171">
  <g id="Group_11" data-name="Group 11" transform="translate(-2.5 -2.368)">
    <path id="Path_35" data-name="Path 35" d="M28.246,31.2a1.267,1.267,0,0,0,1.791,0L41.862,19.376A9.606,9.606,0,0,0,29.142,5.025a9.609,9.609,0,0,0-12.72,14.359ZM18.212,7.6a7.12,7.12,0,0,1,10.034,0,1.259,1.259,0,0,0,1.791,0A7.087,7.087,0,1,1,40.071,17.611l-10.93,10.9-10.93-10.9a7.07,7.07,0,0,1,0-10.009Z" transform="translate(-1.647 0)" fill="#fff" stroke="#fff" stroke-width="1"/>
    <path id="Path_36" data-name="Path 36" d="M50.655,27.7a4.561,4.561,0,0,0-3.21-1.318,4.477,4.477,0,0,0-3.21,1.368L32.63,39.312a3.531,3.531,0,0,1-.946.676,4.477,4.477,0,0,0-1.3-2.8,4.789,4.789,0,0,0-3.379-1.427H22.343a9.747,9.747,0,0,0-13.337.313l-4.561,3.5A3.725,3.725,0,0,0,3,42.53v9.376a3.714,3.714,0,0,0,5.7,3.134L12.849,52.4H32.563a6.25,6.25,0,0,0,4.806-2.247L50.748,34.109a4.553,4.553,0,0,0-.093-6.411Zm-1.782,4.646-.084.084L35.376,48.535a3.725,3.725,0,0,1-2.813,1.335H12.477a1.216,1.216,0,0,0-.676.2L7.341,52.9a1.183,1.183,0,0,1-1.808-1V42.53A1.208,1.208,0,0,1,6,41.592l4.6-3.564.118-.1a7.23,7.23,0,0,1,10.212,0,1.267,1.267,0,0,0,.9.372h5.161a2.264,2.264,0,0,1,1.6.676,1.934,1.934,0,0,1,.574,1.351,1.191,1.191,0,0,1,0,.237.524.524,0,0,1,0,.16,1.022,1.022,0,0,1-.042.152.275.275,0,0,1-.068.22,2.213,2.213,0,0,1-.431.633,2.036,2.036,0,0,1-1.427.591H19.749a1.267,1.267,0,0,0,0,2.534h7.4a4.527,4.527,0,0,0,3.218-1.335,4.6,4.6,0,0,0,.574-.71,6.022,6.022,0,0,0,3.48-1.689L46.027,29.5a2.069,2.069,0,0,1,2.846,0,2.027,2.027,0,0,1,0,2.846Z" transform="translate(0 -3.634)" fill="#fff" stroke="#fff" stroke-width="1"/>
  </g>
</svg>
