<svg xmlns="http://www.w3.org/2000/svg" width="37.143" height="52" viewBox="0 0 37.143 52">
  <g id="Group_12" data-name="Group 12" transform="translate(-6 -2)">
    <path id="Path_37" data-name="Path 37" d="M39.429,15.342V9.429a5.578,5.578,0,0,0-5.571-5.571,5.51,5.51,0,0,0-2.732.745,5.54,5.54,0,0,0-9.393,0A5.5,5.5,0,0,0,13.644,7.98,5.553,5.553,0,0,0,6,13.143v19.4a5.562,5.562,0,0,0,.795,2.866l4.777,7.963v8.771a1.857,1.857,0,0,0,3.714,0V42.857a1.848,1.848,0,0,0-.266-.956L9.98,33.5a1.84,1.84,0,0,1-.266-.955V25.8a5.465,5.465,0,0,0,1.857.344,5.534,5.534,0,0,0,3.714-1.449,5.474,5.474,0,0,0,7.068.3,7.406,7.406,0,0,0,4.8,2.921c-2.949,3.059-4.439,6.2-4.439,9.373a1.857,1.857,0,0,0,3.714,0c0-3.081,2.249-6.329,6.686-9.657A1.855,1.855,0,0,0,32,24.286H28.286a3.718,3.718,0,0,1-3.714-3.714V18.714h13a1.859,1.859,0,0,1,1.857,1.857v11.7a1.853,1.853,0,0,1-.409,1.159L32.4,41.7a1.865,1.865,0,0,0-.4,1.161v9.286a1.857,1.857,0,1,0,3.714,0V43.509l6.207-7.759a5.571,5.571,0,0,0,1.222-3.48v-11.7A5.564,5.564,0,0,0,39.429,15.342Zm-26,5.23a1.859,1.859,0,0,1-3.714,0V13.143a1.859,1.859,0,0,1,3.714,0Zm7.429,0a1.859,1.859,0,0,1-3.714,0V9.429a1.859,1.859,0,0,1,3.714,0ZM28.286,15H24.571V7.571a1.859,1.859,0,0,1,3.714,0Zm7.429,0H32V9.429a1.859,1.859,0,0,1,3.714,0Z" transform="translate(0 0)" fill="#fff"/>
  </g>
</svg>
